<svg width="1040" height="360" viewBox="0 0 1040 360" fill="none" xmlns="http://www.w3.org/2000/svg" role="img" aria-labelledby="title desc">
  <title id="title">Ephemeral Research Desk</title>
  <desc id="desc">A terminal-native research desk logo with market rails, command panels, and an E monogram.</desc>
  <defs>
    <linearGradient id="panel" x1="120" y1="42" x2="908" y2="320" gradientUnits="userSpaceOnUse">
      <stop stop-color="#121212"/>
      <stop offset="0.5" stop-color="#050505"/>
      <stop offset="1" stop-color="#15100A"/>
    </linearGradient>
    <linearGradient id="amber" x1="162" y1="64" x2="838" y2="293" gradientUnits="userSpaceOnUse">
      <stop stop-color="#FFB000"/>
      <stop offset="1" stop-color="#FF6B00"/>
    </linearGradient>
    <linearGradient id="cyan" x1="151" y1="285" x2="812" y2="101" gradientUnits="userSpaceOnUse">
      <stop stop-color="#00D5FF"/>
      <stop offset="1" stop-color="#12F7A6"/>
    </linearGradient>
    <filter id="glow" x="-20%" y="-20%" width="140%" height="140%">
      <feGaussianBlur stdDeviation="6" result="blur"/>
      <feColorMatrix in="blur" type="matrix" values="1 0 0 0 1 0 0.45 0 0 0.55 0 0 0.15 0 0 0 0 0 0.8 0"/>
      <feMerge>
        <feMergeNode/>
        <feMergeNode in="SourceGraphic"/>
      </feMerge>
    </filter>
  </defs>
  <rect width="1040" height="360" rx="34" fill="#030303"/>
  <rect x="22" y="22" width="996" height="316" rx="26" fill="url(#panel)" stroke="#2A2A2A" stroke-width="2"/>
  <path d="M58 82H982" stroke="#2A2A2A" stroke-width="2"/>
  <circle cx="70" cy="52" r="7" fill="#FF3B30"/>
  <circle cx="94" cy="52" r="7" fill="#FFB000"/>
  <circle cx="118" cy="52" r="7" fill="#12F7A6"/>
  <text x="154" y="57" fill="#8B949E" font-family="SFMono-Regular, Menlo, Consolas, monospace" font-size="20">EPHEMERAL / RESEARCH DESK / LIVE</text>
  <text x="824" y="57" fill="#12F7A6" font-family="SFMono-Regular, Menlo, Consolas, monospace" font-size="20">READY</text>
  <g filter="url(#glow)">
    <rect x="68" y="112" width="176" height="176" rx="22" fill="#070707" stroke="url(#amber)" stroke-width="4"/>
    <path d="M116 151H203V175H146V191H194V214H146V233H205V257H116V151Z" fill="url(#amber)"/>
    <path d="M86 132H226" stroke="#2A2A2A" stroke-width="2"/>
    <path d="M86 271H226" stroke="#2A2A2A" stroke-width="2"/>
  </g>
  <path d="M294 122H432" stroke="#2A2A2A" stroke-width="2"/>
  <path d="M294 156H474" stroke="#2A2A2A" stroke-width="2"/>
  <path d="M294 190H420" stroke="#2A2A2A" stroke-width="2"/>
  <path d="M294 224H502" stroke="#2A2A2A" stroke-width="2"/>
  <path d="M294 258H454" stroke="#2A2A2A" stroke-width="2"/>
  <path d="M548 118C594 96 637 104 677 143C717 182 760 190 806 165C836 149 860 143 884 149" stroke="url(#cyan)" stroke-width="5" stroke-linecap="round"/>
  <path d="M548 229C592 260 643 259 700 225C748 197 793 199 835 232C854 247 875 255 898 255" stroke="url(#amber)" stroke-width="5" stroke-linecap="round"/>
  <circle cx="548" cy="118" r="5" fill="#00D5FF"/>
  <circle cx="677" cy="143" r="5" fill="#12F7A6"/>
  <circle cx="806" cy="165" r="5" fill="#00D5FF"/>
  <circle cx="548" cy="229" r="5" fill="#FFB000"/>
  <circle cx="700" cy="225" r="5" fill="#FF6B00"/>
  <circle cx="898" cy="255" r="5" fill="#FFB000"/>
  <text x="286" y="330" fill="#FFB000" font-family="SFMono-Regular, Menlo, Consolas, monospace" font-size="24">terminal-native market intelligence</text>
  <text x="286" y="106" fill="#FFFFFF" font-family="Inter, SF Pro Display, Arial, sans-serif" font-size="64" font-weight="800">Ephemeral</text>
  <text x="286" y="292" fill="#8B949E" font-family="SFMono-Regular, Menlo, Consolas, monospace" font-size="18">WATCHLIST  WORKSPACE  CONTEXT  COMMAND DOCK</text>
</svg>
